<?xml version="1.0" encoding="UTF-8" standalone="no"?>
<svg xmlns="http://www.w3.org/2000/svg" viewBox="0 0 174.69061 201.71535">
 <defs>
  <style>.a{fill:#c00;}.b,.d{fill:none;stroke-miterlimit:10;}.b{stroke:#494949;}.c{fill:#fff;}.d{stroke:#fff;stroke-linecap:round;stroke-width:2px;}</style>
 </defs>
 <title>Shadow Link0</title>
 <polygon points="2 150.13 2 51.584 87.345 2.309 172.69 51.584 172.69 150.13 87.345 199.41"/>
 <path class="a" d="m87.345 4.6188l83.345 48.119v96.242l-83.345 48.119-83.345-48.12v-96.242l83.345-48.119m0-4.6188l-87.345 50.429v100.86l87.345 50.429 87.345-50.429v-100.86l-87.345-50.43z"/>
 <polyline points="87.345 199.02 87.345 100.86 2.356 51.789" class="b"/>
 <line y1="52.055" x2="87.345" x1="171.87" y2="100.86" class="b"/>
 <path class="c" d="m57.022 32.834a3.1584 3.1584 0 0 1 -0.64251 0.00061 1.0371 1.0371 0 0 1 -0.37241 -0.13963q-0.3508-0.21189-0.31957-0.49057 0.031-0.27807 0.59248-0.62492l1.0558-0.65247a2.1897 2.1897 0 0 1 1.0142 -0.37027 1.4044 1.4044 0 0 1 0.80174 0.185 0.46224 0.46224 0 0 1 0.10807 0.8245 0.93416 0.93416 0 0 0 -0.25786 0.40834 1.4103 1.4103 0 0 0 0.29519 0.76466 2.9257 2.9257 0 0 0 0.98447 0.88974 5.0332 5.0332 0 0 0 2.2145 0.71861 1.8152 1.8152 0 0 0 1.1639 -0.21185 0.6806 0.6806 0 0 0 0.33391 -0.47168 0.904 0.904 0 0 0 -0.25814 -0.66875 9.6825 9.6825 0 0 0 -1.0602 -1.003 6.0618 6.0618 0 0 1 -1.3578 -1.4831 1.353 1.353 0 0 1 -0.09081 -1.1732 2.0977 2.0977 0 0 1 0.91253 -1.013 5.1426 5.1426 0 0 1 2.8118 -0.64886 6.6021 6.6021 0 0 1 3.2217 0.86729 4.9594 4.9594 0 0 1 0.99231 0.71493 2.2458 2.2458 0 0 1 0.55318 0.78376 1.8188 1.8188 0 0 1 0.90241 0.16883q0.34891 0.19791 0.34139 0.47172-0.00768 0.27443-0.54094 0.61974l-1.1314 0.7324a2.0794 2.0794 0 0 1 -1.0022 0.37663 1.4288 1.4288 0 0 1 -0.80465 -0.17981 0.62711 0.62711 0 0 1 -0.34 -0.4057q-0.0438-0.17927 0.249-0.47028a1.043 1.043 0 0 0 0.32306 -0.46931 0.934 0.934 0 0 0 -0.19769 -0.68425 2.4451 2.4451 0 0 0 -0.833 -0.70745 3.7807 3.7807 0 0 0 -1.709 -0.524 2.2597 2.2597 0 0 0 -1.2791 0.21705 0.66712 0.66712 0 0 0 -0.17254 1.0543 10.316 10.316 0 0 0 1.1203 1.0581 8.083 8.083 0 0 1 1.3518 1.4089 1.4438 1.4438 0 0 1 0.21975 1.2002 2.0819 2.0819 0 0 1 -0.98529 1.1794 4.5672 4.5672 0 0 1 -2.6927 0.70467 7.5425 7.5425 0 0 1 -3.7137 -1.0883 5.3751 5.3751 0 0 1 -1.0982 -0.86022 3.7549 3.7549 0 0 1 -0.703 -1.01z"/>
 <path class="c" d="m76.54 32.797l-3.1939 2.1292a8.6509 8.6509 0 0 1 1.4594 0.3222 6.2308 6.2308 0 0 1 1.21 0.52621 4.0356 4.0356 0 0 1 1.2795 1.0694 1.538 1.538 0 0 1 0.295 1.2298 2.1329 2.1329 0 0 1 -1.004 1.2661l-2.9112 2.0084a2.0087 2.0087 0 0 1 0.73545 0.58742 0.55518 0.55518 0 0 1 -0.27249 0.70912 1.3884 1.3884 0 0 1 -0.82515 0.23678 2.223 2.223 0 0 1 -1.0961 -0.37657l-1.9349-1.1688q-0.59906-0.36187-0.63619-0.66647a0.57444 0.57444 0 0 1 0.31662 -0.54346 1.516 1.516 0 0 1 1.0591 -0.21719 2.7128 2.7128 0 0 1 0.9509 0.4218l2.8078-1.9157q0.59121-0.40336 0.53407-0.73795-0.06472-0.44191-0.815-0.87773a3.6274 3.6274 0 0 0 -1.1746 -0.43562 11.303 11.303 0 0 0 -1.9956 -0.093l-2.9076 1.9383q0.63541 0.37968 0.70673 0.56776a0.54027 0.54027 0 0 1 -0.27879 0.69051 1.4042 1.4042 0 0 1 -0.82109 0.22674 2.1814 2.1814 0 0 1 -1.0708 -0.36614l-1.862-1.123q-0.58693-0.35454-0.6153-0.64909a0.572 0.572 0 0 1 0.32561 -0.52569 1.5314 1.5314 0 0 1 1.0545 -0.20566 2.5699 2.5699 0 0 1 0.92317 0.40768l6.6317-4.374-0.2775-0.15835q-0.58545-0.33406-0.6253-0.6119a0.511 0.511 0 0 1 0.29477 -0.49609 1.3664 1.3664 0 0 1 0.781 -0.209 2.224 2.224 0 0 1 1.0394 0.33542z"/>
 <path class="c" d="m80.487 47.501l0.36919-0.2691a10.563 10.563 0 0 1 -1.9576 -0.55241 10.448 10.448 0 0 1 -1.619 -0.771 3.0705 3.0705 0 0 1 -1.616 -1.8617 1.42 1.42 0 0 1 0.61016 -1.5624 4.7894 4.7894 0 0 1 2.9246 -0.61455 8.3791 8.3791 0 0 1 3.9422 1.2387 14.63 14.63 0 0 1 1.7218 1.2038l0.36514-0.26614a0.48887 0.48887 0 0 0 0.21178 -0.607q-0.12971-0.35666-1.0936-0.91683a14.176 14.176 0 0 0 -2.2977 -0.99029 5.2793 5.2793 0 0 1 -0.81328 -0.34894 0.645 0.645 0 0 1 -0.37127 -0.4988 0.60533 0.60533 0 0 1 0.31813 -0.53465 1.1506 1.1506 0 0 1 0.41715 -0.18519 1.3706 1.3706 0 0 1 0.46216 -0.02147 5.284 5.284 0 0 1 0.83965 0.22454q0.80222 0.26387 1.571 0.58814a12.149 12.149 0 0 1 1.3236 0.64313 4.0323 4.0323 0 0 1 1.98 1.9302 1.5128 1.5128 0 0 1 -0.736 1.7661l-3.1737 2.3409 0.3106 0.18559q0.65823 0.3933 0.723 0.72287a0.5823 0.5823 0 0 1 -0.28671 0.59211 1.3413 1.3413 0 0 1 -0.845 0.24953 2.3926 2.3926 0 0 1 -1.1597 -0.40534zm2.7982-2.0395a12.643 12.643 0 0 0 -1.7952 -1.3012 5.6334 5.6334 0 0 0 -2.3108 -0.76629 1.6781 1.6781 0 0 0 -1.0782 0.14119 0.30271 0.30271 0 0 0 -0.12763 0.39149 2.1053 2.1053 0 0 0 0.92294 0.88211 7.9501 7.9501 0 0 0 1.6697 0.70732 10.313 10.313 0 0 0 2.0534 0.4307z"/>
 <path class="c" d="m103.91 48.253l-7.9927 6.384 0.3344 0.19981q0.69913 0.41774 0.79216 0.77516a0.5941 0.5941 0 0 1 -0.25552 0.63971 1.2952 1.2952 0 0 1 -0.86227 0.26789 2.5646 2.5646 0 0 1 -1.2306 -0.437l-2.2823-1.3787 0.38191-0.30113a10.451 10.451 0 0 1 -1.8516 -0.45933 8.732 8.732 0 0 1 -1.6389 -0.76857 4.4481 4.4481 0 0 1 -2.3936 -2.8418 2.6451 2.6451 0 0 1 1.2419 -2.6551 6.6294 6.6294 0 0 1 3.969 -1.205 8.3186 8.3186 0 0 1 4.3758 1.0837 5.8382 5.8382 0 0 1 1.2776 0.97646 4.9667 4.9667 0 0 1 0.88672 1.2407l1.847-1.456-0.32807-0.18721q-0.692-0.39488-0.78-0.72235a0.52557 0.52557 0 0 1 0.23448 -0.57836 1.2707 1.2707 0 0 1 0.82508 -0.24981 2.594 2.594 0 0 1 1.1868 0.39686zm-8.2701 3.9067a1.7313 1.7313 0 0 0 0.76 -1.7456 2.5445 2.5445 0 0 0 -1.3796 -1.6866 5.0027 5.0027 0 0 0 -2.6437 -0.66292 3.9474 3.9474 0 0 0 -2.3907 0.72574 1.4304 1.4304 0 0 0 -0.667 1.4968 2.91 2.91 0 0 0 1.5322 1.6659 5.3553 5.3553 0 0 0 2.6572 0.83215 3.2406 3.2406 0 0 0 2.13 -0.625z"/>
 <path class="c" d="m110.43 60.788a5.143 5.143 0 0 1 -2.3651 1.0704 8.1533 8.1533 0 0 1 -3.3106 -0.05682 10.056 10.056 0 0 1 -3.2205 -1.225 6.6843 6.6843 0 0 1 -2.166 -2.0124 3.0505 3.0505 0 0 1 -0.578 -2.2309 2.897 2.897 0 0 1 1.087 -1.7952 5.6948 5.6948 0 0 1 2.4399 -1.0624 8.4125 8.4125 0 0 1 3.2597 -0.00979 9.616 9.616 0 0 1 3.1146 1.1041 6.5507 6.5507 0 0 1 2.1951 1.9763 3.0308 3.0308 0 0 1 -0.45615 4.2416zm-2.1007-1.2292a1.6906 1.6906 0 0 0 0.61672 -1.565 3.0685 3.0685 0 0 0 -1.7374 -2.1796 5.7052 5.7052 0 0 0 -2.9403 -0.79341 3.7506 3.7506 0 0 0 -2.4299 0.71712 1.4511 1.4511 0 0 0 -0.417 1.6496 3.3616 3.3616 0 0 0 1.662 1.8886 5.9276 5.9276 0 0 0 2.955 0.86271 3.3644 3.3644 0 0 0 2.29 -0.581z"/>
 <path class="c" d="m117.32 65.503l-4.318 1.6394-2.0458-1.2358 3.3829-5.6623a1.3449 1.3449 0 0 1 -0.64615 -0.70813 0.59157 0.59157 0 0 1 0.22158 -0.62138 1.2156 1.2156 0 0 1 0.85153 -0.27438 2.8245 2.8245 0 0 1 1.2935 0.449l1.9902 1.1464a1.9259 1.9259 0 0 1 0.90625 0.82162 0.58945 0.58945 0 0 1 -0.19867 0.67215 1.3071 1.3071 0 0 1 -0.93926 0.28393 3.022 3.022 0 0 1 -1.2886 -0.4941l-1.5411 2.6032 3.7633-1.3952 1.9441 1.1312-1.024 3.0369 3.2149-1.6755a3.1705 3.1705 0 0 1 -0.97716 -0.73075 0.642 0.642 0 0 1 0.10954 -0.88167 1.1875 1.1875 0 0 1 0.861 -0.28663 2.9508 2.9508 0 0 1 1.3422 0.47024l2.1056 1.2128a2.1063 2.1063 0 0 1 0.96114 0.86025 0.60975 0.60975 0 0 1 -0.17645 0.70347 1.161 1.161 0 0 1 -0.7963 0.29384 2.3516 2.3516 0 0 1 -1.1308 -0.30343l-6.9674 3.735-2.09-1.253z"/>
 <path class="c" d="m46.581 41.404-6.839 4.31l3.3763 2.3182 1.684-1.0851a2.3961 2.3961 0 0 1 1.129 -0.43636 1.3526 1.3526 0 0 1 0.84892 0.21523 0.56383 0.56383 0 0 1 0.303 0.56163q-0.04787 0.32644-0.68587 0.742l-3.4854 2.2693-7.387-5.136q-0.54741-0.38058-0.52873-0.69636a0.74413 0.74413 0 0 1 0.42108 -0.56324 1.5895 1.5895 0 0 1 0.87358 -0.23579 1.8891 1.8891 0 0 1 1.0282 0.38245l0.8852 0.6078 6.8344-4.2643-0.88794-0.58146q-0.54971-0.36-0.54518-0.65894a0.66588 0.66588 0 0 1 0.38591 -0.5335 1.5477 1.5477 0 0 1 0.84925 -0.22881 1.9519 1.9519 0 0 1 1.0182 0.3616l3.3354 2.169q0.56461 0.3654 0.57478 0.66921a0.64844 0.64844 0 0 1 -0.37167 0.54806 1.5282 1.5282 0 0 1 -0.86135 0.23782 1.9906 1.9906 0 0 1 -1.0436 -0.37612z"/>
 <path class="c" d="m56.888 49.259l-6.0299 4.0868 2.0228 1.3889q0.61363 0.42133 0.62657 0.77411a0.74777 0.74777 0 0 1 -0.392 0.63361 1.5195 1.5195 0 0 1 -0.9112 0.26654 2.0843 2.0843 0 0 1 -1.1282 -0.43477l-5.6561-3.9323q-0.58788-0.4087-0.58511-0.74745a0.748 0.748 0 0 1 0.40707 -0.60385 1.5477 1.5477 0 0 1 0.89353 -0.25226 2.013 2.013 0 0 1 1.0866 0.41088l1.9718 1.3539 4.2946-2.8793-1.3269-0.88444q-0.58357-0.389-0.596-0.71865a0.6829 0.6829 0 0 1 0.3765 -0.58573 1.5045 1.5045 0 0 1 0.87052 -0.24384 2.066 2.066 0 0 1 1.0821 0.39632zm3.0076-2.3407-1.7967 1.2159-1.9781-1.2899l1.796-1.199z"/>
 <path class="c" d="m64.605 54.342l-0.58145 0.41445a6.4456 6.4456 0 0 1 1.6736 0.27014 5.7142 5.7142 0 0 1 1.4771 0.694 2.8883 2.8883 0 0 1 1.5876 2.3697 2.5803 2.5803 0 0 1 -1.258 1.98l-3.3 2.44q0.58189 0.39955 0.611 0.7768a0.77136 0.77136 0 0 1 -0.376 0.67992 1.4746 1.4746 0 0 1 -0.9326 0.2868 2.2356 2.2356 0 0 1 -1.1982 -0.46978l-1.6441-1.143q-0.65307-0.454-0.67706-0.82971a0.76366 0.76366 0 0 1 0.38152 -0.66913 1.4941 1.4941 0 0 1 0.91829 -0.28173 1.9891 1.9891 0 0 1 1.0954 0.399l3.3514-2.4491q0.57291-0.41866 0.51914-0.82325-0.07347-0.52371-0.89717-1.0715a3.6787 3.6787 0 0 0 -1.318 -0.55355 9.6617 9.6617 0 0 0 -2.1659 -0.07163l-3.3003 2.3524q0.68117 0.46771 0.74932 0.699a0.712 0.712 0 0 1 -0.34847 0.8481 1.496 1.496 0 0 1 -0.92241 0.27693 2.1616 2.1616 0 0 1 -1.1642 -0.45271l-1.9937-1.3861q-0.628-0.43661-0.64152-0.79807a0.75642 0.75642 0 0 1 0.39176 -0.644 1.6062 1.6062 0 0 1 1.1697 -0.25555 2.8127 2.8127 0 0 1 1.005 0.5078l4.299-3.0294q-0.55241-0.3682-0.568-0.71582a0.70949 0.70949 0 0 1 0.36525 -0.61339 1.4676 1.4676 0 0 1 0.88685 -0.25849 2.1844 2.1844 0 0 1 1.1354 0.42162z"/>
 <path class="c" d="m71.092 65.516-2.99 2.296l-2.2124-1.5382q-0.6762-0.47012-0.71-0.85889a0.77168 0.77168 0 0 1 0.37165 -0.69226 1.459 1.459 0 0 1 0.93678 -0.28495 2.2908 2.2908 0 0 1 1.2074 0.46976l0.32056 0.22011 7.5633-5.7345-0.32-0.20852q-0.67488-0.43978-0.724-0.80385a0.68229 0.68229 0 0 1 0.331 -0.64862 1.4039 1.4039 0 0 1 0.89131 -0.27042 2.356 2.356 0 0 1 1.1942 0.44225l2.2061 1.4208-5.7835 4.4398 2.5884 0.149a1.1783 1.1783 0 0 1 0.35807 -0.61375 1.4276 1.4276 0 0 1 0.91719 -0.29426 2.3673 2.3673 0 0 1 1.225 0.463l2.219 1.462q0.70788 0.46621 0.77213 0.85618a0.72222 0.72222 0 0 1 -0.32293 0.70011 1.3933 1.3933 0 0 1 -0.92372 0.29383 2.4297 2.4297 0 0 1 -1.253 -0.4819l-0.54391-0.36254-4.0793-0.22865 0.61375 4.1776 0.57648 0.39582q0.7134 0.48984 0.76966 0.89936a0.78415 0.78415 0 0 1 -0.34787 0.73509 1.431 1.431 0 0 1 -0.95324 0.30816 2.3967 2.3967 0 0 1 -1.2714 -0.50674l-2.2564-1.5688q-0.70131-0.48759-0.74592-0.89057a0.78174 0.78174 0 0 1 0.3605 -0.71737 1.7767 1.7767 0 0 1 0.9964 -0.30593l-0.35952-2.6849z"/>
 <polygon points="117.31 134.2 132.25 138.15 143.52 120.4 147.75 120.68 150.28 131.1 142.68 144.07 133.23 148.86 122.52 155.34 116.18 146.46" class="c"/>
 <path class="a" d="m161.19 113.29c0.2851-0.61315 0.517-0.607 0.66622-0.26682a1.5196 1.5196 0 0 1 0.07739 0.667c-0.07372 1.0744-0.10546 2.1371-0.27428 3.2466-0.20265 1.3318-0.53227 2.7076-0.8007 4.0628-0.18224 0.92-0.324 1.8308-0.53865 2.7572-0.20642 0.89075-0.46782 1.7949-0.73291 2.6957-0.42833 1.4555-0.82277 2.915-1.3377 4.3691a30.941 30.941 0 0 1 -1.6513 3.9566 18.706 18.706 0 0 1 -2.7776 4.2692c-0.43147 0.45808-0.8161 1.0427-1.2568 1.4565-1.0364 0.97325-2.0833 1.9383-3.1467 2.7875a15.272 15.272 0 0 1 -1.8372 1.0543c-0.28156 0.17061-0.55978 0.48583-0.84191 0.66187-0.35258 0.22-0.78085 0.54381-1.0457 0.50214-0.48477-0.07626-0.95224 0.54078-1.428 0.68261a32.696 32.696 0 0 0 -3.1206 1.1506 5.9082 5.9082 0 0 0 -2.364 1.7082 13.738 13.738 0 0 1 -1.6022 1.5632c-1.0285 0.87372-2.0621 1.7814-3.108 2.5029a20.096 20.096 0 0 1 -2.9409 1.6396 17.769 17.769 0 0 1 -2.6763 0.98527 22.61 22.61 0 0 1 -2.2733 0.42413 0.63658 0.63658 0 0 0 -0.3186 0.08819c-1.0922 0.862-2.1778 1.7691-3.2742 2.5993-0.64707 0.49-1.3099 0.87273-1.9662 1.2887-1.1547 0.73177-2.3113 1.5202-3.4643 2.1541a15.435 15.435 0 0 1 -2.4637 1.0145 7.7454 7.7454 0 0 1 -1.705 0.39832 5.1218 5.1218 0 0 1 -1.7563 -0.02446 7.5261 7.5261 0 0 1 -2.2145 -0.90342 7.0878 7.0878 0 0 1 -1.333 -1.4619c-0.39586-0.46673-0.7958-0.92969-1.157-1.4413a9.1957 9.1957 0 0 1 -0.67143 -1.2139c-0.37814-0.76307-0.76252-1.5205-1.1046-2.322-0.28014-0.65631-0.51-1.3662-0.74877-2.0652a23.045 23.045 0 0 1 -0.80433 -2.4964 8.8104 8.8104 0 0 1 -0.3959 -4.2424c0.27858-0.01159 0.53508-0.02226 0.79188-0.03274-0.19756 0.073-0.39543 0.14577-0.76921 0.28327 0.80141 1.4275 1.5172 2.7578 2.2764 4.0362a4.1432 4.1432 0 0 0 2.1326 1.9729c1.0012 0.33864 2.1346 0.084 3.321-1.3772a26.108 26.108 0 0 0 1.5439 -2.4214c-0.31372 0.14671-0.53349 0.23628-0.75414 0.35479a3.317 3.317 0 0 1 -3.9652 -0.20118c-0.69637-0.53869-1.4252-1.0257-2.1443-1.5276-0.54946-0.38352-1.1066-0.75424-1.6604-1.1306a6.0092 6.0092 0 0 1 0.94815 -0.07944c0.74828 0.05717 1.4916 0.13051 2.2157 0.2489 0.60392 0.09873 1.1809 0.26377 1.7642 0.41192 0.57329 0.1456 1.1204 0.35377 1.7136 0.44992 0.80347 0.13022 1.64 0.17981 2.4483 0.26256 0.26475-0.73425 0.51838-1.3855 0.72842-2.0355 0.19246-0.59556 0.35747-1.1942 0.48615-1.7803 0.02353-0.10718-0.17005-0.2655-0.28919-0.22247a14.985 14.985 0 0 1 -4.0869 0.74679 5.8301 5.8301 0 0 1 -2.1757 -0.12516 4.6645 4.6645 0 0 1 -1.4086 -1.0848 11.314 11.314 0 0 1 -0.87115 -0.83357 1.4629 1.4629 0 0 1 -0.37407 -0.54976c-0.19651-0.60547-0.35675-1.246-0.52123-1.8816-0.06345-0.24521-0.39039-0.40733 0.2562-0.99694a10.705 10.705 0 0 0 0.851 1.3142 3.1775 3.1775 0 0 0 1.0079 0.75761 6.9663 6.9663 0 0 0 3.6983 0.56277 9.904 9.904 0 0 0 1.5444 -0.41738 3.2738 3.2738 0 0 0 -0.55279 -0.64023c-0.85413-0.53413-1.7315-1.0281-2.5942-1.5476a5.3953 5.3953 0 0 1 -1.9675 -2.0633 7.2848 7.2848 0 0 1 -0.74382 -1.6004c-0.23654-0.85692-0.3659-1.8118-0.53067-2.7331a15.631 15.631 0 0 1 -0.41113 -2.5888c-0.02417-1.325 0.11042-2.7472 0.1992-4.1387a22.982 22.982 0 0 1 0.24973 -2.6382 3.4203 3.4203 0 0 1 0.78339 -2.2032 12.51 12.51 0 0 1 1.2139 1.1239 3.3998 3.3998 0 0 0 2.5662 1.5185c1.0033 0.00942 1.9792 0.09861 3.0933 0.15945-0.00849-0.77329-0.00217-1.3221-0.02338-1.8535a2.4864 2.4864 0 0 1 0.89324 -1.9158 8.3763 8.3763 0 0 1 2.8895 -1.8086c0.39047-0.14567 0.75826-0.13305 1.1478-0.26424a13.644 13.644 0 0 0 1.5514 -0.64329 1.6745 1.6745 0 0 0 0.404 -0.48844c0.54254-0.79686 1.0594-1.622 1.6205-2.3968a32.187 32.187 0 0 0 2.4991 -4.163c0.61444-1.1922 1.179-2.4065 1.802-3.5943a21.259 21.259 0 0 1 1.1689 -1.9435c0.624-0.93095 1.2756-1.8375 1.9294-2.7385 0.31727-0.43726 0.666-0.83831 0.91875-1.1537-0.47536 1.2094-1.0314 2.4855-1.4649 3.762a15.164 15.164 0 0 0 -0.85894 4.6707 48.678 48.678 0 0 0 0.18315 5.6795 51.388 51.388 0 0 0 1.0407 5.7739 33.014 33.014 0 0 0 2.3732 6.8321c0.54621 1.1569 1.137 2.2652 1.714 3.3882 0.039 0.076 0.13137 0.09184 0.18 0.12335 0.48125-1.4728 1.0042-2.9126 1.4046-4.3381 0.53235-1.8955 0.986-3.783 1.4415-5.6678 0.33724-1.3957 0.663-2.7931 0.92149-4.1688 0.27641-1.4712 0.495-2.9281 0.68876-4.3723 0.19076-1.4215 0.36258-2.8402 0.45989-4.2206 0.07195-1.0205-0.06453-1.9433 0.02524-2.97a11.39 11.39 0 0 0 -0.64854 -5.1622 10.105 10.105 0 0 0 -1.4802 -2.2014 0.96777 0.96777 0 0 1 -0.26987 -0.51484 13.732 13.732 0 0 1 1.459 0.1062 8.4575 8.4575 0 0 1 1.4494 0.40769 4.2012 4.2012 0 0 1 0.89834 0.48984c0.83431 0.56675 1.6542 1.1577 2.4854 1.7297 0.28374 0.19528 0.53494 0.50774 0.88845 0.50926a4.2675 4.2675 0 0 1 1.453 0.41754c0.47276 0.16468 1.0145 0.1889 1.476 0.37417 0.50833 0.20411 1.0165-0.32968 1.526-0.77331 0.90063-0.78409 1.7827-1.7241 2.6939-2.3595a5.0667 5.0667 0 0 1 2.0239 -0.746c0.414-0.08081 0.734 0.11027 0.59486 0.8909a3.7862 3.7862 0 0 0 0.103 1.3708c0.01077 0.06238 0.33751-0.02754 0.44642-0.16026 0.43149-0.52585 0.82968-1.1032 1.2494-1.6492 0.49559-0.64477 1.0042-1.272 1.5007-1.9156a14.007 14.007 0 0 0 1.7499 -2.8462c0.33172-0.74435 0.65736-1.4902 0.98859-2.2347 0.24859-0.5587 0.50175-1.1163 0.80721-1.7951a4.4107 4.4107 0 0 1 0.951 2.9833 11.602 11.602 0 0 0 0.231 1.3226 11.799 11.799 0 0 1 0.15611 1.2304 27.777 27.777 0 0 1 -0.62854 7.0188c-0.18187 0.88934-0.23887 1.753-0.472 2.6469a20.793 20.793 0 0 1 -0.85712 2.2817c-0.27375 0.69-0.53377 1.3892-0.86052 2.063-0.36429 0.75121-0.81111 1.4722-1.1968 2.2174-0.6 1.1595-1.1743 2.3302-1.7686 3.4923-0.27407 0.536-0.56957 1.0628-0.79457 1.627 1.3403-1.6897 2.8335-2.9997 4.1169-4.7895 1.406-1.9607 2.084-4.1423 3.1848-6.1748l0.16805-0.00232c-0.1012 0.6476-0.158 1.2864-0.31464 1.945a23.463 23.463 0 0 1 -0.753 2.602 21.816 21.816 0 0 1 -0.96332 2.03c-0.30636 0.62609-0.598 1.2623-0.939 1.8695a10.723 10.723 0 0 1 -0.89474 1.3364c-0.64663 0.82685-1.2996 1.6549-1.9821 2.4189-0.72146 0.80762-1.479 1.5445-2.2233 2.3061-0.48824 0.49961-0.98083 0.98821-1.5356 1.5463l1.28 2.27c0.87313-1.264 1.6885-2.4102 2.4701-3.5872 0.57508-0.86591 1.0733-1.8063 1.665-2.6516 0.75145-1.0735 1.5722-2.0731 2.345-3.126a9.3708 9.3708 0 0 1 1.6835 -1.9925c-0.83455 1.6366-1.6789 3.2705-2.5015 4.9129-0.65582 1.3093-1.1996 2.6912-1.9531 3.9248a25.5 25.5 0 0 1 -2.2276 2.7782 4.7502 4.7502 0 0 1 -0.356 0.35509 2.5144 2.5144 0 0 0 0.2188 0.41863c0.04978 0.0635 0.20171 0.00546 0.23088 0.08034 0.23821 0.61138 0.82168 0.42033 1.3625 0.18419a5.1861 5.1861 0 0 0 2.1583 -2.3423 20.653 20.653 0 0 0 1.9284 -4.6432q0.72082-2.6763 1.4213-5.3498c0.09-0.36 0.16-0.73-0.3-0.29zm-31.463 28.971c-0.01467 0.42251-0.005 0.76574-0.0451 1.1298-0.04286 0.3889-0.12467 0.79521-0.20373 1.1978-0.18064 0.91985-0.77791 1.6149-1.1829 1.3683a1.3173 1.3173 0 0 1 -0.32164 -0.44159c-0.64825-1.0257-0.6149-2.5803-0.54716-4.1313a0.83705 0.83705 0 0 0 -0.40488 -0.85976c-0.5672-0.43734-1.1135-0.91061-1.7105-1.2973a6.3045 6.3045 0 0 0 -4.2396 -1.4366c-0.82759 0.08757-1.3046 0.62452-1.5708 1.8004a8.4649 8.4649 0 0 0 0.035 3.7244 16.047 16.047 0 0 0 2.548 6.2746c0.2771 0.386 0.48631 0.97274 0.9018 1.0472a6.056 6.056 0 0 0 4.7673 -1.68c1.3048-1.0674 2.5492-2.4541 3.815-3.7142a1.2717 1.2717 0 0 0 0.28969 -0.52324 2.1817 2.1817 0 0 1 0.98391 -1.4372 0.96089 0.96089 0 0 1 1.0309 0.10768 0.66289 0.66289 0 0 0 0.67275 0.23383c0.77151-0.18379 1.5225-0.274 2.2873-0.42509 1.9611-0.38754 3.8509-1.7414 5.6657-3.8956a3.2465 3.2465 0 0 0 0.58865 -0.9472c0.76762-2.3132 1.5985-4.64 2.2114-6.9342a34.005 34.005 0 0 0 0.90535 -5.1362 8.2664 8.2664 0 0 0 -0.239 -2.6216c-0.12861-0.62763-0.61235-0.53939-1.2365-0.00678a13.589 13.589 0 0 0 -2.6918 3.5059c-1.147 1.9598-2.1632 4.0098-3.1778 6.0438a2.5771 2.5771 0 0 0 -0.46629 1.5326 9.7697 9.7697 0 0 1 -0.55266 5.1743 2.278 2.278 0 0 1 -0.66123 0.94013 0.465 0.465 0 0 1 -0.58636 -0.30268c-0.21138-0.65513-0.32715-1.4016-0.48972-2.1544a2.6668 2.6668 0 0 0 -0.25733 0.28111c-0.43755 0.59806-0.85588 1.2211-1.3054 1.8022-0.93614 1.21-1.9147 2.0411-2.9395 1.9661-0.62-0.05-1.22-0.12-1.89-0.19zm-23.218-17.84c0.67062 3.6684 4.4281 3.1655 6.5375 0.96276-0.19508-0.08439-0.332-0.25495-0.51034-0.203a7.1348 7.1348 0 0 1 -3.5268 0.13695 17.171 17.171 0 0 1 -2.5 -0.9zm52.073-31.334a21.101 21.101 0 0 1 -3.3 5.2631c-0.88442 1.0596-1.8317 2.0142-2.7413 3.0345a1.4043 1.4043 0 0 0 -0.27841 0.5892c-0.01451 0.08055 0.1899 0.18106 0.30254 0.124a9.1491 9.1491 0 0 0 3.4902 -2.9652 12.531 12.531 0 0 0 2.53 -6.037z"/>
 <line y1="84.567" x2="40.791" x1="13.115" y2="99.291" class="d"/>
 <line y1="94.114" x2="44.466" x1="12.708" y2="111.01" class="d"/>
 <line y1="103.66" x2="77.4" x1="12.302" y2="138.3" class="d"/>
 <line y1="113.21" x2="76.993" x1="11.895" y2="147.84" class="d"/>
 <line y1="122.76" x2="42.474" x1="11.488" y2="139.24" class="d"/>
 <line y1="132.3" x2="27.985" x1="11.082" y2="141.51" class="d"/>
 <path class="a" d="m87.345 4.6188l83.345 48.119v96.242l-83.345 48.119-83.345-48.12v-96.242l83.345-48.119m0-4.6188l-87.345 50.429v100.86l87.345 50.429 87.345-50.429v-100.86l-87.345-50.43z"/>
</svg>
